<svg width="208" height="64" viewBox="0 0 208 64" fill="none" xmlns="http://www.w3.org/2000/svg">
<path fill-rule="evenodd" clip-rule="evenodd" d="M76.7458 26.3502C76.3672 25.8865 75.9021 25.5304 75.3505 25.282C74.799 25.0335 74.161 24.9094 73.4366 24.9094C72.7121 24.9094 72.0412 25.0502 71.4238 25.3317C70.8064 25.6132 70.2713 26.0066 69.8185 26.5117C69.3657 27.0168 69.0118 27.6171 68.7565 28.3127C68.5014 29.0083 68.3738 29.7619 68.3738 30.5733C68.3738 31.4014 68.5014 32.1591 68.7565 32.8464C69.0118 33.5337 69.3616 34.1299 69.8061 34.635C70.2507 35.1401 70.7735 35.5335 71.3744 35.815C71.9754 36.0965 72.6215 36.2373 73.313 36.2373C74.1033 36.2373 74.8031 36.0717 75.4123 35.7405C76.0215 35.4093 76.5236 34.9455 76.9188 34.3494L80.1293 36.759C79.3884 37.8024 78.45 38.5725 77.3139 39.0694C76.1779 39.5662 75.0089 39.8146 73.807 39.8146C72.4404 39.8146 71.1809 39.5993 70.0284 39.1687C68.8759 38.7381 67.8799 38.1212 67.0402 37.318C66.2005 36.5147 65.546 35.5417 65.0768 34.399C64.6075 33.2563 64.3729 31.9811 64.3729 30.5733C64.3729 29.1656 64.6075 27.8904 65.0768 26.7477C65.546 25.6049 66.2005 24.632 67.0402 23.8287C67.8799 23.0255 68.8759 22.4086 70.0284 21.978C71.1809 21.5474 72.4404 21.3321 73.807 21.3321C74.3009 21.3321 74.8154 21.3776 75.3505 21.4687C75.8856 21.5598 76.4125 21.7047 76.9311 21.9035C77.4498 22.1022 77.9477 22.3671 78.4252 22.6984C78.9027 23.0296 79.3308 23.4354 79.7094 23.9157L76.7458 26.3502ZM81.8086 20.5867H85.5131V39.3673H81.8086V20.5867ZM95.7128 37.852H95.6634C95.2518 38.4979 94.7045 38.9616 94.0211 39.2431C93.3379 39.5247 92.6176 39.6655 91.8602 39.6655C91.3004 39.6655 90.7612 39.5868 90.2426 39.4295C89.7239 39.2722 89.2671 39.0361 88.8719 38.7215C88.4768 38.4068 88.1639 38.0177 87.9334 37.5539C87.7029 37.0902 87.5877 36.5519 87.5877 35.9392C87.5877 35.2436 87.7153 34.6556 87.9705 34.1754C88.2257 33.6951 88.5715 33.2976 89.0078 32.983C89.4441 32.6683 89.9421 32.424 90.5019 32.2501C91.0617 32.0763 91.6421 31.9479 92.243 31.865C92.844 31.7822 93.4449 31.7326 94.0459 31.716C94.6468 31.6994 95.2024 31.6912 95.7128 31.6912C95.7128 31.0287 95.4783 30.5029 95.009 30.1137C94.5398 29.7245 93.9842 29.5299 93.342 29.5299C92.7329 29.5299 92.1771 29.6582 91.675 29.915C91.1728 30.1717 90.7242 30.5236 90.329 30.9707L88.3533 28.9337C89.0448 28.2878 89.8516 27.8034 90.7736 27.4804C91.6956 27.1575 92.6505 26.996 93.6384 26.996C94.7251 26.996 95.6182 27.1326 96.318 27.4059C97.0177 27.6792 97.5775 28.0808 97.9973 28.6108C98.4171 29.1407 98.7094 29.7907 98.874 30.5608C99.0387 31.331 99.121 32.2212 99.121 33.2313V39.3674H95.7128V37.852ZM94.7991 34.076C94.5192 34.076 94.1693 34.0884 93.7494 34.1133C93.3296 34.1381 92.9263 34.2085 92.5393 34.3244C92.1524 34.4404 91.8231 34.6142 91.5514 34.8461C91.2798 35.0779 91.144 35.4009 91.144 35.8149C91.144 36.2621 91.3333 36.5933 91.7119 36.8086C92.0906 37.0239 92.4858 37.1316 92.8974 37.1316C93.2596 37.1316 93.6095 37.0819 93.947 36.9825C94.2845 36.8831 94.585 36.7423 94.8485 36.5602C95.1119 36.378 95.3218 36.1462 95.4782 35.8646C95.6346 35.583 95.7128 35.2519 95.7128 34.8709V34.076H94.7991ZM108.234 30.8466C107.69 30.1676 106.974 29.828 106.085 29.828C105.772 29.828 105.468 29.9026 105.172 30.0516C104.875 30.2006 104.727 30.4574 104.727 30.8217C104.727 31.1198 104.88 31.3393 105.184 31.48C105.488 31.6208 105.875 31.745 106.344 31.8526C106.814 31.9603 107.316 32.0763 107.851 32.2004C108.386 32.3246 108.888 32.5192 109.358 32.7842C109.827 33.0492 110.214 33.4094 110.518 33.8649C110.823 34.3203 110.975 34.9289 110.975 35.6907C110.975 36.4691 110.806 37.1109 110.469 37.616C110.131 38.1211 109.7 38.5269 109.172 38.8332C108.645 39.1397 108.053 39.3549 107.395 39.4792C106.736 39.6034 106.085 39.6655 105.443 39.6655C104.604 39.6655 103.755 39.5454 102.899 39.3052C102.043 39.0651 101.319 38.6387 100.726 38.0259L102.973 35.5169C103.319 35.9474 103.702 36.2745 104.122 36.4981C104.542 36.7217 105.032 36.8335 105.591 36.8335C106.02 36.8335 106.407 36.7714 106.752 36.6471C107.098 36.523 107.271 36.2952 107.271 35.964C107.271 35.6494 107.118 35.4133 106.814 35.256C106.509 35.0987 106.123 34.9662 105.653 34.8585C105.184 34.7509 104.682 34.635 104.147 34.5107C103.612 34.3865 103.109 34.2002 102.64 33.9518C102.171 33.7034 101.784 33.3514 101.479 32.896C101.175 32.4406 101.023 31.8319 101.023 31.0701C101.023 30.3579 101.167 29.7453 101.455 29.2318C101.743 28.7184 102.121 28.2961 102.591 27.9648C103.06 27.6337 103.599 27.3894 104.209 27.232C104.817 27.0747 105.435 26.996 106.06 26.996C106.851 26.996 107.65 27.112 108.456 27.3438C109.263 27.5757 109.946 27.9897 110.506 28.586L108.234 30.8466ZM119.668 30.8466C119.125 30.1676 118.409 29.828 117.52 29.828C117.207 29.828 116.903 29.9026 116.606 30.0516C116.31 30.2006 116.162 30.4574 116.162 30.8217C116.162 31.1198 116.314 31.3393 116.619 31.48C116.923 31.6208 117.31 31.745 117.779 31.8526C118.249 31.9603 118.751 32.0763 119.286 32.2004C119.821 32.3246 120.323 32.5192 120.793 32.7842C121.262 33.0492 121.649 33.4094 121.953 33.8649C122.257 34.3203 122.41 34.9289 122.41 35.6907C122.41 36.4691 122.241 37.1109 121.904 37.616C121.566 38.1211 121.134 38.5269 120.607 38.8332C120.08 39.1397 119.487 39.3549 118.829 39.4792C118.17 39.6034 117.52 39.6655 116.878 39.6655C116.038 39.6655 115.19 39.5454 114.334 39.3052C113.478 39.0651 112.754 38.6387 112.161 38.0259L114.408 35.5169C114.754 35.9474 115.137 36.2745 115.557 36.4981C115.977 36.7217 116.467 36.8335 117.026 36.8335C117.454 36.8335 117.841 36.7714 118.186 36.6471C118.533 36.523 118.705 36.2952 118.705 35.964C118.705 35.6494 118.553 35.4133 118.249 35.256C117.944 35.0987 117.557 34.9662 117.088 34.8585C116.619 34.7509 116.116 34.635 115.581 34.5107C115.046 34.3865 114.544 34.2002 114.075 33.9518C113.605 33.7034 113.219 33.3514 112.914 32.896C112.61 32.4406 112.457 31.8319 112.457 31.0701C112.457 30.3579 112.601 29.7453 112.89 29.2318C113.178 28.7184 113.556 28.2961 114.025 27.9648C114.495 27.6337 115.034 27.3894 115.643 27.232C116.252 27.0747 116.869 26.996 117.495 26.996C118.286 26.996 119.084 27.112 119.891 27.3438C120.697 27.5757 121.381 27.9897 121.94 28.586L119.668 30.8466ZM124.657 27.2942H128.065V28.884H128.115C128.263 28.6687 128.457 28.4493 128.695 28.2257C128.933 28.0021 129.214 27.7992 129.535 27.617C129.856 27.4349 130.205 27.2859 130.585 27.1699C130.963 27.054 131.366 26.996 131.795 26.996C132.684 26.996 133.49 27.1493 134.215 27.4556C134.939 27.762 135.561 28.1926 136.08 28.7474C136.598 29.3022 136.997 29.9605 137.277 30.7223C137.557 31.4842 137.697 32.3205 137.697 33.2313C137.697 34.076 137.569 34.8834 137.314 35.6535C137.059 36.4236 136.697 37.1067 136.228 37.703C135.758 38.2992 135.186 38.7753 134.511 39.1314C133.836 39.4874 133.071 39.6655 132.215 39.6655C131.441 39.6655 130.72 39.5454 130.053 39.3052C129.387 39.0651 128.839 38.6552 128.411 38.0756H128.362V45.0314H124.657V27.2942ZM128.065 33.3305C128.065 34.2413 128.325 34.9783 128.843 35.5414C129.362 36.1045 130.091 36.3861 131.029 36.3861C131.967 36.3861 132.696 36.1045 133.214 35.5414C133.733 34.9783 133.992 34.2413 133.992 33.3305C133.992 32.4196 133.733 31.6826 133.214 31.1196C132.696 30.5564 131.967 30.2749 131.029 30.2749C130.091 30.2749 129.362 30.5564 128.843 31.1196C128.325 31.6826 128.065 32.4196 128.065 33.3305ZM139.919 20.5867H143.624V39.3673H139.919V20.5867ZM157.849 39.3673H154.293V37.7278H154.243C154.112 37.9596 153.943 38.1914 153.737 38.4233C153.532 38.6551 153.281 38.8622 152.984 39.0444C152.687 39.2266 152.35 39.3756 151.971 39.4916C151.593 39.6074 151.182 39.6654 150.737 39.6654C149.798 39.6654 149.036 39.5205 148.452 39.2307C147.868 38.9408 147.415 38.5393 147.094 38.0258C146.773 37.5125 146.559 36.908 146.452 36.2124C146.345 35.5168 146.291 34.7632 146.291 33.9517V27.2941H149.995V33.2065C149.995 33.5543 150.008 33.9145 150.033 34.2871C150.058 34.6597 150.132 35.0034 150.255 35.318C150.379 35.6327 150.568 35.8894 150.823 36.0882C151.079 36.2869 151.444 36.3863 151.922 36.3863C152.4 36.3863 152.787 36.2993 153.083 36.1254C153.38 35.9515 153.606 35.7196 153.762 35.4298C153.919 35.14 154.021 34.8129 154.071 34.4486C154.12 34.0842 154.145 33.7033 154.145 33.3058V27.2941H157.849V39.3673ZM167.259 30.8466C166.715 30.1676 165.999 29.828 165.11 29.828C164.797 29.828 164.493 29.9026 164.196 30.0516C163.9 30.2006 163.751 30.4574 163.751 30.8217C163.751 31.1198 163.904 31.3393 164.209 31.48C164.513 31.6208 164.9 31.745 165.369 31.8526C165.839 31.9603 166.34 32.0763 166.876 32.2004C167.411 32.3246 167.913 32.5192 168.383 32.7842C168.851 33.0492 169.239 33.4094 169.543 33.8649C169.848 34.3203 170 34.9289 170 35.6907C170 36.4691 169.832 37.1109 169.494 37.616C169.156 38.1211 168.724 38.5269 168.197 38.8332C167.67 39.1397 167.078 39.3549 166.419 39.4792C165.761 39.6034 165.11 39.6655 164.468 39.6655C163.628 39.6655 162.78 39.5454 161.924 39.3052C161.068 39.0651 160.344 38.6387 159.751 38.0259L161.998 35.5169C162.344 35.9474 162.727 36.2745 163.147 36.4981C163.566 36.7217 164.056 36.8335 164.616 36.8335C165.044 36.8335 165.431 36.7714 165.777 36.6471C166.123 36.523 166.295 36.2952 166.295 35.964C166.295 35.6494 166.143 35.4133 165.839 35.256C165.534 35.0987 165.147 34.9662 164.678 34.8585C164.209 34.7509 163.706 34.635 163.172 34.5107C162.636 34.3865 162.134 34.2002 161.665 33.9518C161.196 33.7034 160.809 33.3514 160.504 32.896C160.199 32.4406 160.047 31.8319 160.047 31.0701C160.047 30.3579 160.192 29.7453 160.48 29.2318C160.768 28.7184 161.146 28.2961 161.616 27.9648C162.085 27.6337 162.624 27.3894 163.233 27.232C163.842 27.0747 164.46 26.996 165.085 26.996C165.875 26.996 166.674 27.112 167.481 27.3438C168.287 27.5757 168.971 27.9897 169.53 28.586L167.259 30.8466Z" fill="#1F1F21"/>
<path fill-rule="evenodd" clip-rule="evenodd" d="M76.7458 26.3502C76.3672 25.8865 75.9021 25.5304 75.3505 25.282C74.799 25.0335 74.161 24.9094 73.4366 24.9094C72.7121 24.9094 72.0412 25.0502 71.4238 25.3317C70.8064 25.6132 70.2713 26.0066 69.8185 26.5117C69.3657 27.0168 69.0118 27.6171 68.7565 28.3127C68.5014 29.0083 68.3738 29.7619 68.3738 30.5733C68.3738 31.4014 68.5014 32.1591 68.7565 32.8464C69.0118 33.5337 69.3616 34.1299 69.8061 34.635C70.2507 35.1401 70.7735 35.5335 71.3744 35.815C71.9754 36.0965 72.6215 36.2373 73.313 36.2373C74.1033 36.2373 74.8031 36.0717 75.4123 35.7405C76.0215 35.4093 76.5236 34.9455 76.9188 34.3494L80.1293 36.759C79.3884 37.8024 78.45 38.5725 77.3139 39.0694C76.1779 39.5662 75.0089 39.8146 73.807 39.8146C72.4404 39.8146 71.1809 39.5993 70.0284 39.1687C68.8759 38.7381 67.8799 38.1212 67.0402 37.318C66.2005 36.5147 65.546 35.5417 65.0768 34.399C64.6075 33.2563 64.3729 31.9811 64.3729 30.5733C64.3729 29.1656 64.6075 27.8904 65.0768 26.7477C65.546 25.6049 66.2005 24.632 67.0402 23.8287C67.8799 23.0255 68.8759 22.4086 70.0284 21.978C71.1809 21.5474 72.4404 21.3321 73.807 21.3321C74.3009 21.3321 74.8154 21.3776 75.3505 21.4687C75.8856 21.5598 76.4125 21.7047 76.9311 21.9035C77.4498 22.1022 77.9477 22.3671 78.4252 22.6984C78.9027 23.0296 79.3308 23.4354 79.7094 23.9157L76.7458 26.3502ZM81.8086 20.5867H85.5131V39.3673H81.8086V20.5867ZM95.7128 37.852H95.6634C95.2518 38.4979 94.7045 38.9616 94.0211 39.2431C93.3379 39.5247 92.6176 39.6655 91.8602 39.6655C91.3004 39.6655 90.7612 39.5868 90.2426 39.4295C89.7239 39.2722 89.2671 39.0361 88.8719 38.7215C88.4768 38.4068 88.1639 38.0177 87.9334 37.5539C87.7029 37.0902 87.5877 36.5519 87.5877 35.9392C87.5877 35.2436 87.7153 34.6556 87.9705 34.1754C88.2257 33.6951 88.5715 33.2976 89.0078 32.983C89.4441 32.6683 89.9421 32.424 90.5019 32.2501C91.0617 32.0763 91.6421 31.9479 92.243 31.865C92.844 31.7822 93.4449 31.7326 94.0459 31.716C94.6468 31.6994 95.2024 31.6912 95.7128 31.6912C95.7128 31.0287 95.4783 30.5029 95.009 30.1137C94.5398 29.7245 93.9842 29.5299 93.342 29.5299C92.7329 29.5299 92.1771 29.6582 91.675 29.915C91.1728 30.1717 90.7242 30.5236 90.329 30.9707L88.3533 28.9337C89.0448 28.2878 89.8516 27.8034 90.7736 27.4804C91.6956 27.1575 92.6505 26.996 93.6384 26.996C94.7251 26.996 95.6182 27.1326 96.318 27.4059C97.0177 27.6792 97.5775 28.0808 97.9973 28.6108C98.4171 29.1407 98.7094 29.7907 98.874 30.5608C99.0387 31.331 99.121 32.2212 99.121 33.2313V39.3674H95.7128V37.852ZM94.7991 34.076C94.5192 34.076 94.1693 34.0884 93.7494 34.1133C93.3296 34.1381 92.9263 34.2085 92.5393 34.3244C92.1524 34.4404 91.8231 34.6142 91.5514 34.8461C91.2798 35.0779 91.144 35.4009 91.144 35.8149C91.144 36.2621 91.3333 36.5933 91.7119 36.8086C92.0906 37.0239 92.4858 37.1316 92.8974 37.1316C93.2596 37.1316 93.6095 37.0819 93.947 36.9825C94.2845 36.8831 94.585 36.7423 94.8485 36.5602C95.1119 36.378 95.3218 36.1462 95.4782 35.8646C95.6346 35.583 95.7128 35.2519 95.7128 34.8709V34.076H94.7991ZM108.234 30.8466C107.69 30.1676 106.974 29.828 106.085 29.828C105.772 29.828 105.468 29.9026 105.172 30.0516C104.875 30.2006 104.727 30.4574 104.727 30.8217C104.727 31.1198 104.88 31.3393 105.184 31.48C105.488 31.6208 105.875 31.745 106.344 31.8526C106.814 31.9603 107.316 32.0763 107.851 32.2004C108.386 32.3246 108.888 32.5192 109.358 32.7842C109.827 33.0492 110.214 33.4094 110.518 33.8649C110.823 34.3203 110.975 34.9289 110.975 35.6907C110.975 36.4691 110.806 37.1109 110.469 37.616C110.131 38.1211 109.7 38.5269 109.172 38.8332C108.645 39.1397 108.053 39.3549 107.395 39.4792C106.736 39.6034 106.085 39.6655 105.443 39.6655C104.604 39.6655 103.755 39.5454 102.899 39.3052C102.043 39.0651 101.319 38.6387 100.726 38.0259L102.973 35.5169C103.319 35.9474 103.702 36.2745 104.122 36.4981C104.542 36.7217 105.032 36.8335 105.591 36.8335C106.02 36.8335 106.407 36.7714 106.752 36.6471C107.098 36.523 107.271 36.2952 107.271 35.964C107.271 35.6494 107.118 35.4133 106.814 35.256C106.509 35.0987 106.123 34.9662 105.653 34.8585C105.184 34.7509 104.682 34.635 104.147 34.5107C103.612 34.3865 103.109 34.2002 102.64 33.9518C102.171 33.7034 101.784 33.3514 101.479 32.896C101.175 32.4406 101.023 31.8319 101.023 31.0701C101.023 30.3579 101.167 29.7453 101.455 29.2318C101.743 28.7184 102.121 28.2961 102.591 27.9648C103.06 27.6337 103.599 27.3894 104.209 27.232C104.817 27.0747 105.435 26.996 106.06 26.996C106.851 26.996 107.65 27.112 108.456 27.3438C109.263 27.5757 109.946 27.9897 110.506 28.586L108.234 30.8466ZM119.668 30.8466C119.125 30.1676 118.409 29.828 117.52 29.828C117.207 29.828 116.903 29.9026 116.606 30.0516C116.31 30.2006 116.162 30.4574 116.162 30.8217C116.162 31.1198 116.314 31.3393 116.619 31.48C116.923 31.6208 117.31 31.745 117.779 31.8526C118.249 31.9603 118.751 32.0763 119.286 32.2004C119.821 32.3246 120.323 32.5192 120.793 32.7842C121.262 33.0492 121.649 33.4094 121.953 33.8649C122.257 34.3203 122.41 34.9289 122.41 35.6907C122.41 36.4691 122.241 37.1109 121.904 37.616C121.566 38.1211 121.134 38.5269 120.607 38.8332C120.08 39.1397 119.487 39.3549 118.829 39.4792C118.17 39.6034 117.52 39.6655 116.878 39.6655C116.038 39.6655 115.19 39.5454 114.334 39.3052C113.478 39.0651 112.754 38.6387 112.161 38.0259L114.408 35.5169C114.754 35.9474 115.137 36.2745 115.557 36.4981C115.977 36.7217 116.467 36.8335 117.026 36.8335C117.454 36.8335 117.841 36.7714 118.186 36.6471C118.533 36.523 118.705 36.2952 118.705 35.964C118.705 35.6494 118.553 35.4133 118.249 35.256C117.944 35.0987 117.557 34.9662 117.088 34.8585C116.619 34.7509 116.116 34.635 115.581 34.5107C115.046 34.3865 114.544 34.2002 114.075 33.9518C113.605 33.7034 113.219 33.3514 112.914 32.896C112.61 32.4406 112.457 31.8319 112.457 31.0701C112.457 30.3579 112.601 29.7453 112.89 29.2318C113.178 28.7184 113.556 28.2961 114.025 27.9648C114.495 27.6337 115.034 27.3894 115.643 27.232C116.252 27.0747 116.869 26.996 117.495 26.996C118.286 26.996 119.084 27.112 119.891 27.3438C120.697 27.5757 121.381 27.9897 121.94 28.586L119.668 30.8466ZM124.657 27.2942H128.065V28.884H128.115C128.263 28.6687 128.457 28.4493 128.695 28.2257C128.933 28.0021 129.214 27.7992 129.535 27.617C129.856 27.4349 130.205 27.2859 130.585 27.1699C130.963 27.054 131.366 26.996 131.795 26.996C132.684 26.996 133.49 27.1493 134.215 27.4556C134.939 27.762 135.561 28.1926 136.08 28.7474C136.598 29.3022 136.997 29.9605 137.277 30.7223C137.557 31.4842 137.697 32.3205 137.697 33.2313C137.697 34.076 137.569 34.8834 137.314 35.6535C137.059 36.4236 136.697 37.1067 136.228 37.703C135.758 38.2992 135.186 38.7753 134.511 39.1314C133.836 39.4874 133.071 39.6655 132.215 39.6655C131.441 39.6655 130.72 39.5454 130.053 39.3052C129.387 39.0651 128.839 38.6552 128.411 38.0756H128.362V45.0314H124.657V27.2942ZM128.065 33.3305C128.065 34.2413 128.325 34.9783 128.843 35.5414C129.362 36.1045 130.091 36.3861 131.029 36.3861C131.967 36.3861 132.696 36.1045 133.214 35.5414C133.733 34.9783 133.992 34.2413 133.992 33.3305C133.992 32.4196 133.733 31.6826 133.214 31.1196C132.696 30.5564 131.967 30.2749 131.029 30.2749C130.091 30.2749 129.362 30.5564 128.843 31.1196C128.325 31.6826 128.065 32.4196 128.065 33.3305ZM139.919 20.5867H143.624V39.3673H139.919V20.5867ZM157.849 39.3673H154.293V37.7278H154.243C154.112 37.9596 153.943 38.1914 153.737 38.4233C153.532 38.6551 153.281 38.8622 152.984 39.0444C152.687 39.2266 152.35 39.3756 151.971 39.4916C151.593 39.6074 151.182 39.6654 150.737 39.6654C149.798 39.6654 149.036 39.5205 148.452 39.2307C147.868 38.9408 147.415 38.5393 147.094 38.0258C146.773 37.5125 146.559 36.908 146.452 36.2124C146.345 35.5168 146.291 34.7632 146.291 33.9517V27.2941H149.995V33.2065C149.995 33.5543 150.008 33.9145 150.033 34.2871C150.058 34.6597 150.132 35.0034 150.255 35.318C150.379 35.6327 150.568 35.8894 150.823 36.0882C151.079 36.2869 151.444 36.3863 151.922 36.3863C152.4 36.3863 152.787 36.2993 153.083 36.1254C153.38 35.9515 153.606 35.7196 153.762 35.4298C153.919 35.14 154.021 34.8129 154.071 34.4486C154.12 34.0842 154.145 33.7033 154.145 33.3058V27.2941H157.849V39.3673ZM167.259 30.8466C166.715 30.1676 165.999 29.828 165.11 29.828C164.797 29.828 164.493 29.9026 164.196 30.0516C163.9 30.2006 163.751 30.4574 163.751 30.8217C163.751 31.1198 163.904 31.3393 164.209 31.48C164.513 31.6208 164.9 31.745 165.369 31.8526C165.839 31.9603 166.34 32.0763 166.876 32.2004C167.411 32.3246 167.913 32.5192 168.383 32.7842C168.851 33.0492 169.239 33.4094 169.543 33.8649C169.848 34.3203 170 34.9289 170 35.6907C170 36.4691 169.832 37.1109 169.494 37.616C169.156 38.1211 168.724 38.5269 168.197 38.8332C167.67 39.1397 167.078 39.3549 166.419 39.4792C165.761 39.6034 165.11 39.6655 164.468 39.6655C163.628 39.6655 162.78 39.5454 161.924 39.3052C161.068 39.0651 160.344 38.6387 159.751 38.0259L161.998 35.5169C162.344 35.9474 162.727 36.2745 163.147 36.4981C163.566 36.7217 164.056 36.8335 164.616 36.8335C165.044 36.8335 165.431 36.7714 165.777 36.6471C166.123 36.523 166.295 36.2952 166.295 35.964C166.295 35.6494 166.143 35.4133 165.839 35.256C165.534 35.0987 165.147 34.9662 164.678 34.8585C164.209 34.7509 163.706 34.635 163.172 34.5107C162.636 34.3865 162.134 34.2002 161.665 33.9518C161.196 33.7034 160.809 33.3514 160.504 32.896C160.199 32.4406 160.047 31.8319 160.047 31.0701C160.047 30.3579 160.192 29.7453 160.48 29.2318C160.768 28.7184 161.146 28.2961 161.616 27.9648C162.085 27.6337 162.624 27.3894 163.233 27.232C163.842 27.0747 164.46 26.996 165.085 26.996C165.875 26.996 166.674 27.112 167.481 27.3438C168.287 27.5757 168.971 27.9897 169.53 28.586L167.259 30.8466Z" fill="white"/>
<path fill-rule="evenodd" clip-rule="evenodd" d="M38.6528 36.3189L52.263 22.7087C52.5315 22.4402 52.9681 22.4417 53.2384 22.7119L59.1101 28.5836C59.9208 29.3943 59.9251 30.7044 59.1198 31.5097L45.5096 45.12C45.2411 45.3884 44.8044 45.387 44.5342 45.1167L38.6625 39.245C37.8518 38.4343 37.8475 37.1242 38.6528 36.3189Z" fill="url(#paint0_linear_45_2405)"/>
<path fill-rule="evenodd" clip-rule="evenodd" d="M50.8435 35.8716L38.6109 23.6389C37.8001 22.8282 37.7959 21.5181 38.6012 20.7128L44.4341 14.8798C44.7026 14.6114 45.1393 14.6128 45.4095 14.8831L59.1101 28.5836C59.9208 29.3944 59.9251 30.7044 59.1197 31.5098L53.2868 37.3427L51.3425 39.2871C52.1479 38.4816 52.1436 37.1716 51.3328 36.3608L50.8435 35.8716Z" fill="url(#paint1_linear_45_2405)"/>
<path d="M138.864 46.8243H141.672C142.352 46.8243 142.996 46.9003 143.604 47.0523C144.22 47.2043 144.756 47.4523 145.212 47.7963C145.668 48.1323 146.028 48.5723 146.292 49.1163C146.564 49.6603 146.7 50.3203 146.7 51.0963C146.7 51.7843 146.568 52.3923 146.304 52.9203C146.048 53.4403 145.7 53.8803 145.26 54.2403C144.82 54.5923 144.312 54.8603 143.736 55.0443C143.16 55.2283 142.556 55.3203 141.924 55.3203H138.864V46.8243ZM140.736 53.5923H141.708C142.14 53.5923 142.54 53.5483 142.908 53.4603C143.284 53.3723 143.608 53.2283 143.88 53.0283C144.152 52.8203 144.364 52.5523 144.516 52.2243C144.676 51.8883 144.756 51.4803 144.756 51.0003C144.756 50.5843 144.676 50.2243 144.516 49.9203C144.364 49.6083 144.156 49.3523 143.892 49.1523C143.628 48.9523 143.316 48.8043 142.956 48.7083C142.604 48.6043 142.232 48.5523 141.84 48.5523H140.736V53.5923ZM150.765 46.8243H152.313L156.009 55.3203H153.897L153.165 53.5203H149.865L149.157 55.3203H147.093L150.765 46.8243ZM151.485 49.2963L150.453 51.9363H152.529L151.485 49.2963ZM157.406 48.4803H154.982V46.8243H161.702V48.4803H159.278V55.3203H157.406V48.4803ZM164.348 46.8243H165.896L169.592 55.3203H167.48L166.747 53.5203H163.448L162.74 55.3203H160.675L164.348 46.8243ZM165.068 49.2963L164.036 51.9363H166.112L165.068 49.2963Z" fill="white"/>
<defs>
<linearGradient id="paint0_linear_45_2405" x1="49.4678" y1="50.6418" x2="61.5304" y2="39.7574" gradientUnits="userSpaceOnUse">
<stop stop-color="#00749B"/>
<stop offset="1" stop-color="#005077"/>
</linearGradient>
<linearGradient id="paint1_linear_45_2405" x1="28.7742" y1="32.4986" x2="46.1086" y2="46.0046" gradientUnits="userSpaceOnUse">
<stop stop-color="#00CAF2"/>
<stop offset="1" stop-color="#009AE0"/>
</linearGradient>
</defs>
</svg>
